<?xml version="1.0" encoding="UTF-8" standalone="no"?>
<!-- Generator: Adobe Illustrator 18.1.1, SVG Export Plug-In . SVG Version: 6.00 Build 0)  -->

<svg
   xmlns:osb="http://www.openswatchbook.org/uri/2009/osb"
   xmlns:dc="http://purl.org/dc/elements/1.1/"
   xmlns:cc="http://creativecommons.org/ns#"
   xmlns:rdf="http://www.w3.org/1999/02/22-rdf-syntax-ns#"
   xmlns:svg="http://www.w3.org/2000/svg"
   xmlns="http://www.w3.org/2000/svg"
   xmlns:xlink="http://www.w3.org/1999/xlink"
   xmlns:sodipodi="http://sodipodi.sourceforge.net/DTD/sodipodi-0.dtd"
   xmlns:inkscape="http://www.inkscape.org/namespaces/inkscape"
   version="1.1"
   id="Capa_1"
   x="0px"
   y="0px"
   viewBox="0 0 38.273 38.273"
   style="enable-background:new 0 0 38.273 38.273;"
   xml:space="preserve"
   sodipodi:docname="go-back-arrow-white.svg"
   inkscape:version="0.92.4 (5da689c313, 2019-01-14)"><metadata
   id="metadata41"><rdf:RDF><cc:Work
       rdf:about=""><dc:format>image/svg+xml</dc:format><dc:type
         rdf:resource="http://purl.org/dc/dcmitype/StillImage" /></cc:Work></rdf:RDF></metadata><defs
   id="defs39"><linearGradient
     id="linearGradient6044"
     osb:paint="solid"><stop
       style="stop-color:#000000;stop-opacity:1;"
       offset="0"
       id="stop6042" /></linearGradient><linearGradient
     id="linearGradient6012"
     osb:paint="solid"><stop
       style="stop-color:#000000;stop-opacity:1;"
       offset="0"
       id="stop6010" /></linearGradient><linearGradient
     inkscape:collect="always"
     xlink:href="#linearGradient6012"
     id="linearGradient6014"
     x1="-0.50002122"
     y1="19.13628"
     x2="38.779586"
     y2="19.13628"
     gradientUnits="userSpaceOnUse" /><linearGradient
     inkscape:collect="always"
     xlink:href="#linearGradient6044"
     id="linearGradient6046"
     x1="-2.1236501e-05"
     y1="19.136217"
     x2="38.272797"
     y2="19.136217"
     gradientUnits="userSpaceOnUse" /></defs><sodipodi:namedview
   pagecolor="#ffffff"
   bordercolor="#666666"
   borderopacity="1"
   objecttolerance="10"
   gridtolerance="10"
   guidetolerance="10"
   inkscape:pageopacity="0"
   inkscape:pageshadow="2"
   inkscape:window-width="1920"
   inkscape:window-height="1017"
   id="namedview37"
   showgrid="false"
   inkscape:zoom="6.166227"
   inkscape:cx="19.136499"
   inkscape:cy="19.136499"
   inkscape:window-x="-8"
   inkscape:window-y="-8"
   inkscape:window-maximized="1"
   inkscape:current-layer="Capa_1" />
<g
   id="g4"
   style="stroke:none;stroke-opacity:1;fill:#ffffff;fill-opacity:0.98994976">
	<path
   style="fill:#ffffff;stroke:none;stroke-opacity:1;fill-opacity:0.98994976"
   d="M20.621,10.484V5.84c0-0.808-0.458-1.548-1.181-1.909c-0.722-0.359-1.589-0.279-2.236,0.206   l-9.486,7.147c-0.677,0.292-1.117,0.67-1.401,1.058l-5.468,4.119C0.312,16.866-0.003,17.501,0,18.173   c0.002,0.673,0.322,1.305,0.862,1.706l16.355,12.133c0.646,0.48,1.51,0.554,2.23,0.191c0.72-0.362,1.174-1.1,1.174-1.905v-5.517   c0.013,0,0.025,0,0.038,0c3.842,0,10.687,1.089,13.366,8.386c0.311,0.846,1.116,1.397,2.001,1.397c0.079,0,0.157-0.004,0.236-0.013   c0.975-0.108,1.751-0.868,1.88-1.84c0.052-0.394,1.208-9.682-4.461-16.23C30.621,12.948,26.235,10.935,20.621,10.484z    M20.659,20.515c-1.443,0-2.379,0.132-2.482,0.146c-1.046,0.154-1.822,1.053-1.822,2.111v3.287l-10.66-7.907l3.555-2.678   c0.136-0.104,0.259-0.222,0.365-0.351c0.155-0.068,0.301-0.152,0.437-0.254l6.303-4.75v2.401c0,1.168,0.939,2.119,2.108,2.134   c5.345,0.063,9.374,1.61,11.975,4.6c1.442,1.658,2.314,3.602,2.835,5.469C28.923,21.038,23.424,20.515,20.659,20.515z"
   id="path2" />
</g>
<g
   id="g6">
</g>
<g
   id="g8">
</g>
<g
   id="g10">
</g>
<g
   id="g12">
</g>
<g
   id="g14">
</g>
<g
   id="g16">
</g>
<g
   id="g18">
</g>
<g
   id="g20">
</g>
<g
   id="g22">
</g>
<g
   id="g24">
</g>
<g
   id="g26">
</g>
<g
   id="g28">
</g>
<g
   id="g30">
</g>
<g
   id="g32">
</g>
<g
   id="g34">
</g>
</svg>