<?xml version="1.0" encoding="UTF-8" standalone="no"?>
<svg
   xmlns:dc="http://purl.org/dc/elements/1.1/"
   xmlns:cc="http://creativecommons.org/ns#"
   xmlns:rdf="http://www.w3.org/1999/02/22-rdf-syntax-ns#"
   xmlns:svg="http://www.w3.org/2000/svg"
   xmlns="http://www.w3.org/2000/svg"
   xmlns:sodipodi="http://sodipodi.sourceforge.net/DTD/sodipodi-0.dtd"
   xmlns:inkscape="http://www.inkscape.org/namespaces/inkscape"
   id="Layer_1"
   enable-background="new 0 0 512 512"
   height="512"
   viewBox="0 0 512 512"
   width="512"
   version="1.1"
   sodipodi:docname="setting-solid-white.svg"
   inkscape:version="0.92.4 (5da689c313, 2019-01-14)">
  <metadata
     id="metadata9">
    <rdf:RDF>
      <cc:Work
         rdf:about="">
        <dc:format>image/svg+xml</dc:format>
        <dc:type
           rdf:resource="http://purl.org/dc/dcmitype/StillImage" />
      </cc:Work>
    </rdf:RDF>
  </metadata>
  <defs
     id="defs7" />
  <sodipodi:namedview
     pagecolor="#ffffff"
     bordercolor="#666666"
     borderopacity="1"
     objecttolerance="10"
     gridtolerance="10"
     guidetolerance="10"
     inkscape:pageopacity="0"
     inkscape:pageshadow="2"
     inkscape:window-width="1920"
     inkscape:window-height="1017"
     id="namedview5"
     showgrid="false"
     inkscape:zoom="0.4609375"
     inkscape:cx="256"
     inkscape:cy="256"
     inkscape:window-x="-8"
     inkscape:window-y="-8"
     inkscape:window-maximized="1"
     inkscape:current-layer="Layer_1" />
  <path
     d="m464.866 192.8h-10.87c-3.531-11.05-7.986-21.784-13.323-32.097l7.698-7.698c18.665-18.645 18.165-48.525.006-66.665l-22.711-22.71c-18.129-18.153-48.015-18.679-66.665-.007l-7.704 7.704c-10.313-5.336-21.048-9.792-32.097-13.323v-10.871c0-25.989-21.144-47.133-47.134-47.133h-32.133c-25.989 0-47.133 21.144-47.133 47.133v10.871c-11.049 3.53-21.784 7.986-32.097 13.323l-7.697-7.697c-18.613-18.635-48.498-18.198-66.664-.006l-22.713 22.711c-18.152 18.132-18.677 48.014-.006 66.665l7.704 7.704c-5.337 10.313-9.792 21.046-13.323 32.097h-10.87c-25.989-.001-47.134 21.143-47.134 47.132v32.134c0 25.989 21.145 47.133 47.134 47.133h10.87c3.531 11.05 7.986 21.784 13.323 32.097l-7.698 7.698c-18.665 18.645-18.165 48.525-.006 66.665l22.711 22.71c18.129 18.153 48.015 18.679 66.665.007l7.704-7.704c10.313 5.336 21.048 9.792 32.097 13.323v10.871c0 25.989 21.145 47.133 47.134 47.133h32.133c25.989 0 47.134-21.144 47.134-47.133v-10.871c11.049-3.53 21.784-7.986 32.097-13.323l7.697 7.697c18.613 18.635 48.497 18.198 66.664.006l22.713-22.712c18.152-18.132 18.677-48.014.006-66.665l-7.704-7.704c5.337-10.313 9.792-21.046 13.323-32.097h10.87c25.989 0 47.134-21.144 47.134-47.133v-32.134c-.001-25.987-21.146-47.131-47.135-47.131zm-208.866 174.6c-61.427 0-111.4-49.974-111.4-111.4s49.973-111.4 111.4-111.4 111.4 49.974 111.4 111.4-49.973 111.4-111.4 111.4z"
     id="path2"
     style="fill:#ffffff;fill-opacity:1" />
</svg>
